<?xml version="1.0" standalone="no"?>
<!DOCTYPE svg PUBLIC "-//W3C//DTD SVG 20010904//EN"
 "http://www.w3.org/TR/2001/REC-SVG-20010904/DTD/svg10.dtd">
<svg version="1.0" xmlns="http://www.w3.org/2000/svg"
 width="1512.000000pt" height="409.000000pt" viewBox="0 0 1512.000000 409.000000"
 preserveAspectRatio="xMidYMid meet">
<metadata>
Created by potrace 1.16, written by Peter Selinger 2001-2019
</metadata>
<g transform="translate(0.000000,409.000000) scale(0.100000,-0.100000)"
fill="#000000" stroke="none">
<path d="M0 2910 l0 -1180 855 0 855 0 0 70 0 70 105 0 105 0 0 -70 0 -70
1895 0 1895 0 0 45 0 45 100 0 100 0 0 -45 0 -45 1100 0 c727 0 1100 3 1100
10 0 6 42 10 105 10 66 0 105 -4 105 -10 0 -8 837 -11 2688 -10 1478 0 3005 1
3395 0 l707 0 0 -252 0 -253 -186 3 c-206 3 -216 1 -255 -61 -18 -29 -19 -47
-17 -179 2 -106 -1 -151 -10 -160 -6 -6 -12 -18 -12 -25 0 -17 -161 -18 -178
-1 -9 9 -12 118 -12 430 0 402 -1 418 -19 428 -25 13 -440 14 -474 1 -14 -5
-36 -21 -51 -36 -14 -14 -27 -27 -28 -28 -1 -1 -5 -155 -8 -342 l-5 -340 -92
-5 c-85 -5 -94 -7 -122 -34 l-31 -30 0 180 c0 127 -4 184 -12 192 -8 8 -66 12
-195 12 l-183 0 -38 -34 -37 -34 -5 -184 -5 -183 -88 -3 c-57 -2 -94 1 -103 9
-12 9 -14 83 -14 430 0 403 -1 419 -19 429 -12 6 -106 10 -236 10 -238 0 -266
-6 -305 -60 -19 -26 -20 -48 -22 -361 l-3 -334 -92 -5 c-85 -5 -94 -7 -122
-34 l-31 -30 0 180 c0 127 -4 184 -12 192 -8 8 -65 12 -192 12 -170 0 -182 -1
-212 -22 -18 -13 -38 -33 -43 -46 -7 -13 -11 -95 -11 -192 l0 -170 -26 -6
c-18 -5 -32 0 -49 16 -18 17 -41 25 -80 28 l-55 4 0 399 c0 348 -2 400 -16
413 -13 14 -49 16 -240 16 -244 0 -262 -3 -303 -56 -20 -26 -21 -37 -21 -350
0 -177 -3 -329 -6 -338 -5 -13 -23 -16 -89 -16 -70 0 -87 -3 -111 -22 -16 -12
-32 -27 -36 -33 -4 -5 -8 71 -8 170 0 127 -4 185 -12 193 -8 8 -65 12 -192 12
-162 0 -184 -2 -210 -19 -50 -33 -55 -53 -56 -218 l0 -153 -51 0 c-56 0 -89
-13 -89 -35 0 -23 -57 -19 -70 4 -6 13 -10 166 -10 428 0 305 -3 412 -12 421
-9 9 -75 12 -235 12 -243 0 -261 -3 -302 -56 -20 -26 -21 -37 -21 -353 0 -241
-3 -330 -12 -339 -7 -7 -42 -12 -85 -12 -77 0 -124 -16 -142 -47 -7 -13 -10
33 -11 155 0 100 -4 182 -10 193 -10 18 -23 19 -191 19 -270 0 -269 1 -269
-245 0 -120 -4 -175 -12 -183 -16 -16 -180 -16 -196 0 -9 9 -12 118 -12 429 0
273 -4 420 -10 424 -6 4 -113 8 -238 10 -213 4 -229 3 -260 -15 -18 -11 -41
-34 -52 -52 -19 -32 -20 -45 -13 -345 5 -247 4 -315 -7 -328 -9 -11 -32 -15
-89 -15 -80 0 -134 -21 -149 -58 -4 -9 -9 71 -12 178 l-5 195 -198 0 -199 0
-29 -33 -29 -32 0 -173 c0 -121 -4 -177 -12 -185 -7 -7 -42 -12 -88 -12 -67 0
-79 3 -98 23 -22 23 -22 26 -22 429 0 337 -2 408 -14 417 -10 9 -80 11 -250 9
l-236 -3 -37 -38 -38 -37 -2 -328 c-2 -179 -5 -332 -7 -338 -3 -8 -38 -13 -95
-15 -83 -4 -92 -6 -120 -33 l-31 -30 0 186 c0 160 -2 187 -16 192 -9 3 -96 6
-194 6 -175 0 -179 0 -208 -25 -48 -40 -54 -68 -50 -224 l3 -141 -107 0 -108
0 0 405 c0 389 -1 405 -19 415 -12 6 -106 10 -236 10 -181 0 -223 -3 -252 -16
-68 -33 -67 -31 -73 -404 l-5 -335 -92 -5 c-85 -5 -94 -7 -122 -34 l-31 -30 0
180 c0 127 -4 184 -12 192 -8 8 -66 12 -195 12 l-183 0 -38 -34 -37 -34 -3
-179 c-2 -123 -7 -180 -15 -185 -17 -11 -169 -10 -187 2 -12 7 -14 70 -12 429
2 406 1 421 -17 431 -12 6 -106 10 -236 10 -238 0 -266 -5 -303 -58 -21 -29
-22 -41 -24 -363 l-3 -334 -92 -5 c-85 -5 -94 -7 -122 -34 l-31 -30 0 180 c0
127 -4 184 -12 192 -8 8 -65 12 -192 12 -170 0 -182 -1 -212 -22 -18 -13 -38
-33 -43 -46 -7 -13 -11 -95 -11 -192 0 -197 10 -183 -125 -178 l-80 3 -3 419
c-2 373 -4 422 -19 438 -15 16 -36 18 -240 18 -243 0 -261 -3 -302 -56 -20
-26 -21 -37 -21 -350 0 -177 -3 -329 -6 -338 -5 -13 -23 -16 -88 -16 -82 0
-113 -10 -144 -48 -10 -13 -12 17 -12 157 0 100 -4 180 -10 192 -10 18 -23 19
-193 19 -163 0 -185 -2 -211 -19 -50 -34 -55 -53 -56 -221 l0 -155 -110 3
-110 3 0 403 c0 299 -3 405 -12 414 -9 9 -75 12 -235 12 -243 0 -261 -3 -302
-56 -20 -26 -21 -37 -21 -353 0 -241 -3 -330 -12 -339 -7 -7 -42 -12 -85 -12
-80 0 -121 -15 -147 -52 -14 -19 -16 -78 -16 -440 l0 -418 6039 0 c4016 0
6042 3 6046 10 8 13 212 13 220 0 4 -6 173 -10 476 -10 306 0 469 3 469 10 0
6 43 10 110 10 67 0 110 -4 110 -10 0 -14 936 -14 945 0 8 13 215 13 215 0 0
-6 88 -10 245 -10 202 0 245 2 245 14 0 7 -9 16 -20 19 -29 7 -29 77 0 84 11
3 20 11 20 18 0 7 -9 15 -20 18 -15 4 -20 14 -20 40 0 33 20 64 33 50 4 -3 7
861 7 1920 l0 1927 -7560 0 -7560 0 0 -1180z m470 985 l0 -85 -100 0 -100 0 0
78 c0 43 3 82 7 85 3 4 48 7 100 7 l93 0 0 -85z m1180 -80 l0 -85 -95 0 -95 0
0 85 0 85 95 0 95 0 0 -85z m9990 0 l0 -85 -95 0 -95 0 0 85 0 85 95 0 95 0 0
-85z m3268 -177 l-3 -83 -97 -3 -98 -3 0 86 0 85 100 0 101 0 -3 -82z m-11458
-83 l0 -85 -100 0 -100 0 0 85 0 85 100 0 100 0 0 -85z m-2310 -60 l0 -85 -95
0 -95 0 0 85 0 85 95 0 95 0 0 -85z m13318 -388 l3 -88 -98 3 -98 3 -3 74 c-2
41 -1 80 2 88 4 11 27 13 98 11 l93 -3 3 -88z m-1378 -22 l0 -85 -95 0 -95 0
0 85 0 85 95 0 95 0 0 -85z m-8352 -87 l3 -88 -101 0 -100 0 0 83 c0 46 3 87
7 91 4 4 48 5 98 4 l90 -3 3 -87z m-2558 -13 l0 -85 -100 0 -100 0 0 85 0 85
100 0 100 0 0 -85z m9370 0 l0 -85 -100 0 -100 0 0 85 0 85 100 0 100 0 0 -85z
m-8605 -295 l0 -85 -97 -3 -98 -3 0 91 0 91 98 -3 97 -3 0 -85z m-2047 -212
l3 -88 -101 0 -100 0 0 90 0 91 98 -3 97 -3 3 -87z m9992 -83 l0 -85 -100 0
-100 0 0 85 0 85 100 0 100 0 0 -85z m-5732 -22 l-3 -88 -100 0 -100 0 -3 74
c-2 41 -1 80 2 88 4 10 31 13 106 13 l101 0 -3 -87z m8030 -20 l-3 -88 -95 0
-95 0 -3 88 -3 87 101 0 101 0 -3 -87z m-9633 -193 l0 -85 -100 0 -100 0 -3
88 -3 88 103 -3 103 -3 0 -85z m-3167 -62 l3 -88 -106 0 -105 0 0 83 c0 46 3
87 7 91 4 4 50 5 103 4 l95 -3 3 -87z m9262 -43 l0 -85 -105 0 -105 0 0 85 0
85 105 0 105 0 0 -85z m-2310 -10 l0 -85 -100 0 -100 0 0 85 0 85 100 0 100 0
0 -85z m5080 -70 l0 -85 -100 0 -100 0 0 85 0 85 100 0 100 0 0 -85z m1798
-57 l3 -88 -106 0 -105 0 0 83 c0 46 3 87 7 91 4 4 50 5 103 4 l95 -3 3 -87z
m-12913 -788 l0 -55 -53 -3 c-65 -4 -82 8 -82 57 0 52 15 62 80 59 l55 -3 0
-55z m170 0 l0 -55 -60 0 -60 0 -3 44 c-5 68 0 72 65 69 l58 -3 0 -55z m1340
0 l0 -55 -60 0 -60 0 -3 44 c-5 68 0 72 65 69 l58 -3 0 -55z m179 28 c6 -18 6
-38 0 -55 -9 -26 -13 -28 -69 -28 l-60 0 -3 34 c-2 19 -1 45 3 58 5 22 10 24
63 21 52 -3 57 -5 66 -30z m1331 -28 l0 -55 -60 0 -60 0 -3 44 c-5 68 0 72 65
69 l58 -3 0 -55z m173 48 c7 -7 12 -28 12 -48 0 -48 -15 -60 -76 -60 -56 0
-64 7 -64 60 0 53 8 60 64 60 29 0 57 -5 64 -12z m1340 0 c17 -17 15 -83 -2
-97 -8 -7 -37 -11 -68 -9 l-53 3 -3 44 c-2 24 -1 50 2 57 7 18 107 19 124 2z
m177 -48 l0 -55 -53 -3 c-65 -4 -82 8 -82 57 0 52 15 62 80 59 l55 -3 0 -55z
m1339 44 c3 -9 6 -28 6 -44 0 -54 -7 -60 -70 -60 -44 0 -59 4 -64 16 -8 21 -8
89 1 97 3 4 32 7 64 7 43 0 58 -4 63 -16z m171 -44 l0 -55 -55 -3 c-60 -4 -80
11 -80 56 0 51 16 63 78 60 l57 -3 0 -55z m1343 21 c2 -19 1 -44 -2 -57 -6
-21 -12 -24 -59 -24 -61 0 -77 11 -77 56 0 60 6 65 74 62 l61 -3 3 -34z m167
-21 l0 -55 -60 0 -60 0 -3 44 c-5 68 0 72 65 69 l58 -3 0 -55z m1340 0 l0 -55
-60 0 -60 0 -3 44 c-5 68 0 72 65 69 l58 -3 0 -55z m170 0 l0 -55 -60 0 -60 0
-3 44 c-5 68 0 72 65 69 l58 -3 0 -55z m1340 0 l0 -55 -60 0 -60 0 -3 44 c-5
68 0 72 65 69 l58 -3 0 -55z m173 48 c7 -7 12 -28 12 -48 0 -48 -15 -60 -76
-60 -56 0 -64 7 -64 60 0 53 8 60 64 60 29 0 57 -5 64 -12z m1337 -48 l0 -55
-60 0 -60 0 -3 44 c-5 68 0 72 65 69 l58 -3 0 -55z m179 44 c3 -9 6 -28 6 -44
0 -54 -7 -60 -70 -60 -63 0 -70 6 -70 60 0 54 7 60 70 60 44 0 59 -4 64 -16z
m1334 4 c17 -17 15 -83 -2 -97 -8 -7 -37 -11 -68 -9 l-53 3 -3 44 c-2 24 -1
50 2 57 7 18 107 19 124 2z m177 -48 l0 -55 -55 -3 c-60 -4 -80 11 -80 56 0
51 16 63 78 60 l57 -3 0 -55z m-13780 -160 l0 -55 -53 -3 c-65 -4 -82 8 -82
57 0 52 15 62 80 59 l55 -3 0 -55z m170 0 l0 -55 -60 0 -60 0 -3 44 c-5 68 0
72 65 69 l58 -3 0 -55z m1340 0 l0 -55 -60 0 -60 0 -3 44 c-5 68 0 72 65 69
l58 -3 0 -55z m179 28 c6 -18 6 -38 0 -55 -8 -25 -15 -28 -63 -31 -60 -4 -71
4 -71 55 0 58 7 64 69 61 51 -3 56 -5 65 -30z m1331 -28 l0 -55 -60 0 -60 0
-3 44 c-5 68 0 72 65 69 l58 -3 0 -55z m173 48 c7 -7 12 -28 12 -48 0 -48 -15
-60 -76 -60 -56 0 -64 7 -64 60 0 53 8 60 64 60 29 0 57 -5 64 -12z m1342 -7
c14 -28 12 -77 -4 -90 -8 -7 -37 -11 -68 -9 l-53 3 -3 44 c-5 66 0 71 62 71
44 0 57 -4 66 -19z m175 -41 l0 -55 -53 -3 c-65 -4 -82 8 -82 57 0 52 15 62
80 59 l55 -3 0 -55z m1333 48 c7 -7 12 -28 12 -48 0 -48 -15 -60 -76 -60 -56
0 -64 7 -64 60 0 53 8 60 64 60 29 0 57 -5 64 -12z m177 -48 l0 -55 -55 -3
c-60 -4 -80 11 -80 56 0 51 16 63 78 60 l57 -3 0 -55z m1343 21 c2 -19 1 -44
-2 -57 -6 -21 -12 -24 -59 -24 -62 0 -77 11 -77 60 0 50 15 61 80 58 55 -3 55
-3 58 -37z m167 -21 l0 -55 -60 0 -60 0 -3 44 c-5 68 0 72 65 69 l58 -3 0 -55z
m1340 0 l0 -55 -60 0 -60 0 -3 44 c-5 68 0 72 65 69 l58 -3 0 -55z m170 0 l0
-55 -60 0 -60 0 -3 44 c-5 68 0 72 65 69 l58 -3 0 -55z m1340 0 l0 -55 -60 0
-60 0 -3 44 c-5 68 0 72 65 69 l58 -3 0 -55z m173 48 c7 -7 12 -28 12 -48 0
-48 -15 -60 -76 -60 -56 0 -64 7 -64 60 0 53 8 60 64 60 29 0 57 -5 64 -12z
m1337 -48 l0 -55 -60 0 -60 0 -3 44 c-5 68 0 72 65 69 l58 -3 0 -55z m179 44
c10 -26 7 -79 -6 -92 -19 -19 -114 -16 -122 4 -10 26 -7 79 6 92 19 19 114 16
122 -4z m1334 4 c17 -17 15 -83 -2 -97 -8 -7 -37 -11 -68 -9 l-53 3 -3 44 c-2
24 -1 50 2 57 7 18 107 19 124 2z m177 -48 l0 -55 -55 -3 c-60 -4 -80 11 -80
56 0 51 16 63 78 60 l57 -3 0 -55z m-13780 -160 l0 -55 -53 -3 c-65 -4 -82 8
-82 57 0 52 15 62 80 59 l55 -3 0 -55z m170 0 l0 -55 -60 0 -60 0 -3 44 c-5
68 0 72 65 69 l58 -3 0 -55z m1340 0 l0 -55 -60 0 -60 0 -3 44 c-5 68 0 72 65
69 l58 -3 0 -55z m179 28 c6 -18 6 -38 0 -55 -9 -26 -13 -28 -69 -28 l-60 0
-3 34 c-2 19 -1 45 3 58 5 22 10 24 63 21 52 -3 57 -5 66 -30z m3021 -28 l0
-55 -53 -3 c-65 -4 -82 8 -82 57 0 52 15 62 80 59 l55 -3 0 -55z m1333 48 c14
-14 16 -76 3 -96 -5 -9 -26 -12 -67 -10 l-59 3 -3 34 c-2 19 -1 44 2 57 6 21
12 24 59 24 29 0 58 -5 65 -12z m177 -48 l0 -55 -55 -3 c-60 -4 -80 11 -80 56
0 51 16 63 78 60 l57 -3 0 -55z m4360 0 l0 -55 -60 0 -60 0 -3 44 c-5 68 0 72
65 69 l58 -3 0 -55z m173 48 c7 -7 12 -28 12 -48 0 -48 -15 -60 -76 -60 -56 0
-64 7 -64 60 0 53 8 60 64 60 29 0 57 -5 64 -12z m1337 -48 l0 -55 -60 0 -60
0 -3 44 c-5 68 0 72 65 69 l58 -3 0 -55z m-12360 -30 l0 -25 -151 -3 c-126 -2
-153 0 -164 13 -10 12 -10 18 0 30 11 13 38 15 164 13 l151 -3 0 -25z m1165
15 c10 -12 10 -18 0 -30 -10 -12 -41 -15 -162 -15 -155 0 -170 4 -154 45 4 12
31 15 154 15 121 0 152 -3 162 -15z m1160 0 c7 -8 10 -22 6 -30 -8 -22 -314
-22 -322 0 -16 41 -1 45 154 45 120 0 152 -3 162 -15z m1165 -15 l0 -25 -151
-3 c-126 -2 -153 0 -164 13 -10 12 -10 18 0 30 11 13 38 15 164 13 l151 -3 0
-25z m1160 0 l0 -25 -153 -3 c-129 -2 -153 0 -158 13 -4 8 -4 22 0 30 5 13 29
15 158 13 l153 -3 0 -25z m1165 15 c10 -12 10 -18 0 -30 -10 -12 -41 -15 -162
-15 -123 0 -150 3 -154 15 -16 41 -1 45 154 45 121 0 152 -3 162 -15z m1158 6
c8 -5 12 -17 10 -27 -3 -18 -15 -19 -163 -19 -148 0 -160 1 -163 19 -2 10 2
22 10 27 7 5 76 9 153 9 77 0 146 -4 153 -9z m1167 -21 l0 -25 -151 -3 c-126
-2 -153 0 -164 13 -10 12 -10 18 0 30 11 13 38 15 164 13 l151 -3 0 -25z
m1165 15 c10 -12 10 -18 0 -30 -10 -12 -41 -15 -162 -15 -155 0 -170 4 -154
45 4 12 31 15 154 15 121 0 152 -3 162 -15z m1160 0 c7 -8 10 -22 6 -30 -5
-13 -29 -15 -163 -13 -145 3 -158 4 -161 22 -2 10 2 22 10 27 7 5 77 9 154 9
113 0 144 -3 154 -15z m1165 -15 l0 -25 -156 -3 c-138 -2 -157 -1 -163 14 -15
39 9 45 168 42 l151 -3 0 -25z m1160 0 l0 -25 -153 -3 c-129 -2 -153 0 -158
13 -4 8 -4 22 0 30 5 13 29 15 158 13 l153 -3 0 -25z m1169 7 c19 -30 -10 -37
-167 -37 -154 0 -169 4 -153 45 5 13 29 15 157 13 133 -3 153 -5 163 -21z
m-13689 -137 l0 -55 -59 -3 c-67 -3 -76 3 -76 59 0 49 15 60 80 57 l55 -3 0
-55z m170 0 l0 -55 -60 0 -60 0 -3 44 c-5 68 0 72 65 69 l58 -3 0 -55z m1340
0 l0 -55 -60 0 -60 0 -3 44 c-5 68 0 72 65 69 l58 -3 0 -55z m176 36 c7 -14 9
-40 5 -61 l-7 -36 -62 3 -62 3 -3 43 c-4 58 9 72 69 72 43 0 51 -3 60 -24z
m3018 10 c7 -8 11 -34 9 -58 l-3 -43 -59 -3 c-41 -2 -62 1 -67 10 -13 20 -11
82 3 96 17 17 103 15 117 -2z m1339 2 c14 -14 16 -76 3 -96 -5 -9 -26 -12 -67
-10 l-59 3 -3 43 c-2 24 2 50 9 58 14 17 100 19 117 2z m177 -48 l0 -55 -55
-3 c-60 -4 -80 11 -80 56 0 51 16 63 78 60 l57 -3 0 -55z m4360 0 l0 -55 -60
0 -60 0 -3 44 c-5 68 0 72 65 69 l58 -3 0 -55z m173 48 c14 -14 16 -76 3 -96
-5 -9 -26 -12 -67 -10 l-59 3 -3 43 c-2 24 2 50 9 58 14 17 100 19 117 2z
m1337 -48 l0 -55 -60 0 -60 0 -3 44 c-5 68 0 72 65 69 l58 -3 0 -55z m-8877
-169 c8 -5 12 -17 10 -27 -3 -18 -16 -19 -161 -22 -134 -2 -158 0 -163 13 -4
8 -1 22 6 30 10 12 41 15 154 15 77 0 147 -4 154 -9z m1160 0 c8 -5 12 -17 10
-27 -3 -18 -15 -19 -158 -19 -143 0 -155 1 -158 19 -2 10 2 22 10 27 17 11
279 11 296 0z m1172 -6 c7 -8 10 -22 6 -30 -5 -13 -29 -15 -163 -13 -145 3
-158 4 -161 22 -2 10 2 22 10 27 7 5 77 9 154 9 113 0 144 -3 154 -15z m1160
0 c7 -8 10 -22 6 -30 -8 -22 -314 -22 -322 0 -4 8 -1 22 6 30 18 22 292 22
310 0z m1158 6 c8 -5 12 -17 10 -27 -3 -18 -16 -19 -159 -22 -138 -2 -157 -1
-163 14 -14 37 10 44 158 44 77 0 147 -4 154 -9z m1171 -5 c6 -7 8 -21 5 -30
-6 -15 -25 -16 -163 -14 -143 3 -156 4 -159 22 -2 10 2 22 10 27 7 5 77 9 154
9 108 0 144 -3 153 -14z m1161 -1 c7 -8 10 -22 6 -30 -5 -13 -29 -15 -163 -13
-145 3 -158 4 -161 22 -2 10 2 22 10 27 7 5 77 9 154 9 113 0 144 -3 154 -15z
m1158 6 c8 -5 12 -17 10 -27 -3 -18 -16 -19 -161 -22 -134 -2 -158 0 -163 13
-4 8 -1 22 6 30 10 12 41 15 154 15 77 0 147 -4 154 -9z m1160 0 c8 -5 12 -17
10 -27 -3 -18 -15 -19 -158 -19 -143 0 -155 1 -158 19 -2 10 2 22 10 27 17 11
279 11 296 0z m1172 -6 c7 -8 10 -22 6 -30 -5 -13 -29 -15 -163 -13 -145 3
-158 4 -161 22 -2 10 2 22 10 27 7 5 77 9 154 9 113 0 144 -3 154 -15z m-4646
-324 c4 -5 3 -16 0 -25 -6 -14 -26 -16 -163 -14 -153 3 -156 3 -159 26 l-3 22
160 0 c88 0 162 -4 165 -9z m1161 -16 c0 -19 -8 -20 -154 -23 -155 -3 -179 2
-168 33 6 13 28 15 164 13 150 -3 158 -4 158 -23z m1160 0 c0 -19 -8 -20 -154
-23 -155 -3 -179 2 -168 33 6 13 28 15 164 13 150 -3 158 -4 158 -23z m1165 0
l0 -26 -157 3 c-155 3 -158 3 -161 26 l-3 22 160 0 161 0 0 -25z m1165 0 c0
-19 -8 -20 -154 -23 -155 -3 -179 2 -168 33 6 13 28 15 164 13 150 -3 158 -4
158 -23z"/>
</g>
</svg>
